<?xml version="1.0" encoding="utf-8"?>
<!-- Generator: Adobe Illustrator 27.5.0, SVG Export Plug-In . SVG Version: 6.00 Build 0)  -->
<svg version="1.1" id="Layer_1" xmlns="http://www.w3.org/2000/svg" xmlns:xlink="http://www.w3.org/1999/xlink" x="0px" y="0px"
	 viewBox="0 0 4000 4000" style="enable-background:new 0 0 4000 4000;" xml:space="preserve">
<g>
	<rect style="fill:#FFFFFF;" width="4000" height="4000"/>
	<g>
		<g>
			<defs>
				<polygon id="SVGID_1_" points="1627.012,1527.666 1774.979,1527.666 1958.826,1527.666 2129.683,1527.666 2167.979,1384.74 
					1813.275,1384.74 1665.308,1384.74 				"/>
			</defs>
			<clipPath id="SVGID_00000132051729876188978960000012010026800609788067_">
				<use xlink:href="#SVGID_1_"  style="overflow:visible;"/>
			</clipPath>
			
				<linearGradient id="SVGID_00000031184168612616141420000006054702212529966995_" gradientUnits="userSpaceOnUse" x1="2793.6875" y1="1737.2241" x2="895.2751" y2="1141.9338">
				<stop  offset="0" style="stop-color:#0000FF"/>
				<stop  offset="1" style="stop-color:#00FFFF"/>
			</linearGradient>
			
				<rect x="1627.012" y="1384.74" style="clip-path:url(#SVGID_00000132051729876188978960000012010026800609788067_);fill:url(#SVGID_00000031184168612616141420000006054702212529966995_);" width="540.968" height="142.925"/>
		</g>
		<g>
			<defs>
				<polygon id="SVGID_00000025419950637794140090000003350748644062005639_" points="1646.996,1928.537 1629.269,2071.463 
					1983.973,2071.463 2022.27,1928.537 				"/>
			</defs>
			<clipPath id="SVGID_00000085966850817347739890000015880247736303222672_">
				<use xlink:href="#SVGID_00000025419950637794140090000003350748644062005639_"  style="overflow:visible;"/>
			</clipPath>
			
				<linearGradient id="SVGID_00000009584291426039716220000011668272342243851913_" gradientUnits="userSpaceOnUse" x1="1233.0618" y1="2444.3462" x2="2712.2332" y2="1335.4274">
				<stop  offset="0" style="stop-color:#0000FF"/>
				<stop  offset="1" style="stop-color:#00FFFF"/>
			</linearGradient>
			
				<rect x="1629.269" y="1928.537" style="clip-path:url(#SVGID_00000085966850817347739890000015880247736303222672_);fill:url(#SVGID_00000009584291426039716220000011668272342243851913_);" width="393.001" height="142.926"/>
		</g>
		<g>
			<defs>
				<polygon id="SVGID_00000101084610259184145110000009316935451945383821_" points="1838.263,2615.26 1876.56,2472.334 
					1373.888,2472.334 1335.591,2615.26 				"/>
			</defs>
			<clipPath id="SVGID_00000155134336979200559320000005127876887453012147_">
				<use xlink:href="#SVGID_00000101084610259184145110000009316935451945383821_"  style="overflow:visible;"/>
			</clipPath>
			
				<linearGradient id="SVGID_00000106828826990098023470000013101630538866664327_" gradientUnits="userSpaceOnUse" x1="988.9042" y1="3180.6907" x2="2529.1135" y2="1591.2625">
				<stop  offset="0" style="stop-color:#0000FF"/>
				<stop  offset="1" style="stop-color:#00FFFF"/>
			</linearGradient>
			
				<rect x="1335.591" y="2472.334" style="clip-path:url(#SVGID_00000155134336979200559320000005127876887453012147_);fill:url(#SVGID_00000106828826990098023470000013101630538866664327_);" width="540.968" height="142.926"/>
		</g>
		<g>
			<defs>
				<path id="SVGID_00000155849164434674361330000001300256430346336177_" d="M2171.489,1527.666
					c-97.14,362.531-194.28,725.063-291.42,1087.594h147.968c100.024-373.296,200.049-746.593,300.073-1119.889L2171.489,1527.666z"
					/>
			</defs>
			<clipPath id="SVGID_00000045580494063279287840000014428996250424777884_">
				<use xlink:href="#SVGID_00000155849164434674361330000001300256430346336177_"  style="overflow:visible;"/>
			</clipPath>
			
				<linearGradient id="SVGID_00000139262827444436486660000009874419101309326232_" gradientUnits="userSpaceOnUse" x1="1070.6392" y1="359.9838" x2="3853.6748" y2="4925.4355">
				<stop  offset="0" style="stop-color:#0000FF"/>
				<stop  offset="1" style="stop-color:#00FFFF"/>
			</linearGradient>
			
				<rect x="1880.069" y="1495.37" style="clip-path:url(#SVGID_00000045580494063279287840000014428996250424777884_);fill:url(#SVGID_00000139262827444436486660000009874419101309326232_);" width="448.041" height="1119.889"/>
		</g>
		<g>
			<defs>
				<path id="SVGID_00000175281788508030203350000015495739310889760397_" d="M2303.564,1527.666h15.892h306.655l38.297-142.925
					h-423.43h-31.193l-38.296,142.925l-33.626,125.495C2161.785,1580.449,2228.182,1530.907,2303.564,1527.666"/>
			</defs>
			<clipPath id="SVGID_00000181047369237712455770000013510278481392029602_">
				<use xlink:href="#SVGID_00000175281788508030203350000015495739310889760397_"  style="overflow:visible;"/>
			</clipPath>
			
				<linearGradient id="SVGID_00000151512763293406205770000002418374347195731373_" gradientUnits="userSpaceOnUse" x1="1913.6836" y1="1825.2277" x2="2765.7935" y2="1289.8271">
				<stop  offset="0" style="stop-color:#0000FF"/>
				<stop  offset="1" style="stop-color:#00FFFF"/>
			</linearGradient>
			
				<rect x="2137.863" y="1384.74" style="clip-path:url(#SVGID_00000181047369237712455770000013510278481392029602_);fill:url(#SVGID_00000151512763293406205770000002418374347195731373_);" width="526.546" height="268.42"/>
		</g>
		<g>
			<defs>
				<path id="SVGID_00000029746666514821012260000003237239901896942252_" d="M1481.301,2071.463c84.723,0,169.446,0,254.17,0
					c-50.855-16.521-82.144-67.634-73.972-120.286l102.659-383.129h-147.967C1571.228,1735.853,1526.265,1903.657,1481.301,2071.463
					"/>
			</defs>
			<clipPath id="SVGID_00000033350697885063110140000012532221073203915711_">
				<use xlink:href="#SVGID_00000029746666514821012260000003237239901896942252_"  style="overflow:visible;"/>
			</clipPath>
			
				<linearGradient id="SVGID_00000139279749777235402650000005437258284929539505_" gradientUnits="userSpaceOnUse" x1="886.0466" y1="1992.0042" x2="2259.947" y2="1670.7628">
				<stop  offset="0" style="stop-color:#0000FF"/>
				<stop  offset="1" style="stop-color:#00FFFF"/>
			</linearGradient>
			
				<rect x="1481.301" y="1568.047" style="clip-path:url(#SVGID_00000033350697885063110140000012532221073203915711_);fill:url(#SVGID_00000139279749777235402650000005437258284929539505_);" width="282.857" height="503.415"/>
		</g>
		<path style="opacity:0.2;fill-rule:evenodd;clip-rule:evenodd;fill:#020C6A;" d="M2137.863,1653.16
			c0,0,52.253-104.315,171.749-88.752c3.282-12.248,6.563-24.495,9.845-36.743h-15.892
			C2228.182,1530.907,2161.785,1580.449,2137.863,1653.16"/>
		<path style="opacity:0.2;fill-rule:evenodd;clip-rule:evenodd;fill:#020C6A;" d="M1749.086,2071.463
			c-90.746-35.505-52.633-142.926-52.633-142.926h-8.318h-20.569l-6.066,22.639c-8.172,52.652,23.117,103.766,73.972,120.286
			H1749.086z"/>
	</g>
</g>
</svg>
